# xmcd
# 
# Track frame offsets:
#     150
#     15385
#     37434
#     61107
#     72156
#     99225
#     136210
#     153642
#     170398
#     195951
#     230776
# 
# Disc length: 3329
# 
# Revision: 8
# Processed by: cddbd v1.5.2PL0 Copyright (c) Steve Scherf et al.
# Submitted via: fre:ac v1.0.31
# 
DISCID=8c0cff0b
DTITLE=Faith No More - The Real Thing [Deluxe Edition - Disc 1]
DYEAR=1989
DGENRE=Alternative Rock
TTITLE0=From Out Of Nowhere
TTITLE1=Epic
TTITLE2=Falling To Pieces
TTITLE3=Surprise! You're dead!
TTITLE4=Zombie Eaters
TTITLE5=The Real Thing
TTITLE6=Underwater Love
TTITLE7=The Morning After
TTITLE8=Woodpecker From Mars
TTITLE9=War Pigs [Black Sabbath Cover]
TTITLE10=Edge Of The World
EXTD=Remastered Deluxe Edition YEAR: 1989
EXTT0=
EXTT1=
EXTT2=
EXTT3=
EXTT4=
EXTT5=
EXTT6=
EXTT7=
EXTT8=
EXTT9=
EXTT10=
PLAYORDER=
